<svg width="31" height="35" viewBox="0 0 31 35" fill="none" xmlns="http://www.w3.org/2000/svg">
<path d="M30.7576 19.6065C30.7576 28.1168 23.8585 35.014 15.3524 35C6.89439 34.986 -0.00931498 28.0562 9.43435e-06 19.5894C0.00309472 16.6695 0.81905 13.9414 2.23225 11.6163C2.44479 11.2677 2.94502 11.2397 3.19403 11.5635C3.2002 11.5705 3.20569 11.5783 3.21111 11.5853C3.70516 12.2242 4.71035 12.0402 4.96245 11.2731C6.58305 6.34069 9.52778 1.58633 13.039 0.0565567C13.4865 -0.138345 13.9806 0.194841 13.9739 0.683262C13.9737 0.699458 13.9735 0.715654 13.9734 0.73185C13.9587 3.68935 16.3358 6.15012 19.2895 6.22876C19.3984 6.23165 19.5066 6.23137 19.6141 6.22794C22.138 6.14806 24.4492 7.63082 25.3434 9.99455C25.5037 10.4181 25.6544 10.8449 25.7952 11.2731C26.0473 12.0401 27.0525 12.2241 27.5465 11.5852C27.5519 11.5782 27.5574 11.5704 27.5636 11.5634C27.8149 11.2366 28.3159 11.2723 28.53 11.6248C29.9432 13.9523 30.7576 16.6843 30.7576 19.6065Z" fill="url(#paint0_linear_9_1752)"/>
<circle cx="15.3788" cy="21.7424" r="9.01515" fill="url(#paint1_linear_9_1752)"/>
<path d="M15.3524 34.9999C23.8585 35.0139 30.7576 28.1168 30.7576 19.6065C30.7576 18.896 30.7091 18.197 30.6159 17.5121H0.141668C0.0493148 18.1914 0.00077303 18.8847 1.88496e-05 19.5894C-0.00930557 28.0562 6.8944 34.9859 15.3524 34.9999Z" fill="url(#paint2_linear_9_1752)"/>
<path d="M26.7122 2.24353C26.7106 2.24353 26.7091 2.24353 26.7075 2.24353C26.5143 2.24422 26.3945 2.46149 26.4927 2.62812C26.6563 2.90599 26.7383 3.23767 26.7049 3.59062C26.6376 4.3005 26.0914 4.88829 25.389 5.00736C25.2133 5.03714 25.0425 5.03708 24.8799 5.01203C24.6083 4.97023 24.3568 5.17797 24.3561 5.45296V5.45858C24.3561 6.76106 25.411 7.81696 26.7122 7.81696C28.0134 7.81696 29.0683 6.76106 29.0683 5.45858C29.0683 4.15604 28.0134 2.24353 26.7122 2.24353V2.24353Z" fill="url(#paint3_linear_9_1752)"/>
<path d="M16.8047 18.0303C16.3441 18.0303 15.9707 18.4129 15.9707 18.885C15.9705 19.357 16.3441 19.7397 16.8045 19.7397H18.3646L14.8013 23.3912L12.8644 21.4063C12.5388 21.0724 12.0108 21.0724 11.685 21.4063L9.78976 23.3481C9.46396 23.6819 9.46396 24.223 9.78976 24.5569C10.1153 24.8907 10.6433 24.8907 10.9691 24.5569L12.2747 23.2194L14.2116 25.2043C14.368 25.3646 14.5802 25.4545 14.8013 25.4545C15.0224 25.4545 15.2346 25.3646 15.391 25.2043L19.544 20.9485V22.5468C19.544 23.0189 19.9174 23.4015 20.378 23.4015C20.8387 23.4015 21.2121 23.0189 21.2121 22.5468V18.885C21.2121 18.4131 20.8387 18.0303 20.3783 18.0303H16.8047Z" fill="white"/>
<defs>
<linearGradient id="paint0_linear_9_1752" x1="-1.68467" y1="18.7722" x2="15.8712" y2="32.343" gradientUnits="userSpaceOnUse">
<stop stop-color="#FFEC88"/>
<stop offset="1" stop-color="#FEA613"/>
</linearGradient>
<linearGradient id="paint1_linear_9_1752" x1="2.21149" y1="13.7304" x2="7.29388" y2="34.4331" gradientUnits="userSpaceOnUse">
<stop stop-color="#FFD0B4"/>
<stop offset="1" stop-color="#F63C3C"/>
</linearGradient>
<linearGradient id="paint2_linear_9_1752" x1="3.70128" y1="19.7646" x2="3.70128" y2="33.0436" gradientUnits="userSpaceOnUse">
<stop stop-color="#FE646F" stop-opacity="0.01"/>
<stop offset="0.2966" stop-color="#FC616A" stop-opacity="0.297"/>
<stop offset="0.6214" stop-color="#F5575D" stop-opacity="0.621"/>
<stop offset="0.9585" stop-color="#EB4747" stop-opacity="0.959"/>
<stop offset="1" stop-color="#E94444"/>
</linearGradient>
<linearGradient id="paint3_linear_9_1752" x1="22.5055" y1="4.46233" x2="26.3954" y2="7.24566" gradientUnits="userSpaceOnUse">
<stop stop-color="#FEE45A"/>
<stop offset="1" stop-color="#FEA613"/>
</linearGradient>
</defs>
</svg>
