<svg width="18" height="16" viewBox="0 0 18 16" fill="none" xmlns="http://www.w3.org/2000/svg">
<path fill-rule="evenodd" clip-rule="evenodd" d="M9 2.50284C9.8322 0.981725 11.405 0.0270389 13.1233 0C15.9248 0.123138 18.102 2.51214 17.9963 5.34698C17.9963 8.79559 14.4083 12.562 11.399 15.1156C10.012 16.2948 7.98798 16.2948 6.60099 15.1156C3.59172 12.562 0.00369379 8.79559 0.00369379 5.34698C-0.102043 2.51214 2.07519 0.123138 4.87669 0C6.595 0.0270389 8.1678 0.981725 9 2.50284ZM1.50308 5.34698C1.50308 7.54872 3.71242 10.6856 7.56434 13.9552C8.39396 14.662 9.60604 14.662 10.4357 13.9522C14.2876 10.6856 16.4969 7.54872 16.4969 5.34698C16.6036 3.3494 15.097 1.63899 13.1233 1.51687C11.1496 1.63899 9.74969 3.17817 9.74969 4.39432C9.74969 4.81319 9.4935 5.15275 9 5.15275C8.5065 5.15275 8.25031 4.81319 8.25031 4.39432C8.25031 3.19779 6.85043 1.63899 4.87669 1.51687C2.90295 1.63899 1.3964 3.3494 1.50308 5.34698Z" fill="white"/>
</svg>
