<svg width="32" height="32" viewBox="0 0 32 32" fill="none" xmlns="http://www.w3.org/2000/svg">
<path d="M16 32C15.1581 32 14.4816 31.4878 13.9381 31.0762C13.6428 30.8526 13.3083 30.5992 13.1039 30.5589C12.879 30.5141 12.4599 30.6235 12.0901 30.7196C11.4064 30.8975 10.6315 31.0992 9.87463 30.7852C9.10563 30.4662 8.69756 29.7684 8.33744 29.1528C8.148 28.8288 7.93319 28.4615 7.75319 28.3411C7.56881 28.2176 7.14381 28.1584 6.76888 28.1061C6.06612 28.0081 5.26962 27.8971 4.68594 27.3134C4.10225 26.7296 3.99131 25.9332 3.89337 25.2305C3.84113 24.8555 3.78194 24.4305 3.65838 24.2461C3.53794 24.0661 3.17075 23.8514 2.84681 23.6619C2.23112 23.3018 1.53338 22.8937 1.21456 22.1248C0.90075 21.368 1.10237 20.5932 1.28025 19.9096C1.3765 19.5398 1.48556 19.1207 1.44106 18.8959C1.40069 18.6916 1.14731 18.3571 0.923813 18.0618C0.512187 17.5183 0 16.8419 0 16C0 15.1581 0.512187 14.4816 0.923813 13.9381C1.14737 13.6428 1.40075 13.3083 1.44113 13.1039C1.48563 12.8791 1.37656 12.4599 1.28038 12.0901C1.10244 11.4064 0.900938 10.6314 1.21481 9.87463C1.53375 9.10563 2.23156 8.69756 2.84719 8.33744C3.17125 8.148 3.5385 7.93319 3.65894 7.75319C3.78244 7.56881 3.84162 7.14381 3.89394 6.76888C3.99188 6.06612 4.10294 5.26962 4.68663 4.68594C5.27038 4.10225 6.06681 3.99131 6.7695 3.89337C7.1445 3.84113 7.5695 3.78194 7.75394 3.65838C7.93388 3.53794 8.14856 3.17075 8.33806 2.84681C8.69819 2.23112 9.10625 1.53338 9.87525 1.21456C10.6319 0.900813 11.4068 1.10237 12.0904 1.28025C12.4603 1.37656 12.8792 1.48556 13.1041 1.44106C13.3084 1.40069 13.6429 1.14731 13.9382 0.923813C14.4817 0.512187 15.1581 0 16 0C16.8419 0 17.5184 0.512187 18.0619 0.923813C18.3572 1.14737 18.6918 1.40075 18.8961 1.44113C19.1209 1.48594 19.5401 1.3765 19.9099 1.28038C20.5936 1.1025 21.3685 0.90075 22.1254 1.21481C22.8944 1.53375 23.3024 2.23156 23.6626 2.84719C23.852 3.17125 24.0668 3.5385 24.2468 3.65894C24.4312 3.78244 24.8562 3.84162 25.2311 3.89394C25.9339 3.99188 26.7304 4.10294 27.3141 4.68663C27.8977 5.27038 28.0087 6.06681 28.1066 6.7695C28.1589 7.1445 28.2181 7.5695 28.3416 7.75394C28.4621 7.93388 28.8292 8.14856 29.1532 8.33806C29.7689 8.69819 30.4666 9.10625 30.7854 9.87525C31.0992 10.632 30.8976 11.4068 30.7197 12.0904C30.6235 12.4602 30.5144 12.8793 30.5589 13.1041C30.5993 13.3084 30.8527 13.6429 31.0762 13.9382C31.4878 14.4817 32 15.1581 32 16C32 16.8419 31.4878 17.5184 31.0762 18.0619C30.8526 18.3572 30.5992 18.6918 30.5589 18.8961C30.5144 19.1209 30.6234 19.5401 30.7196 19.9099C30.8976 20.5936 31.0991 21.3686 30.7852 22.1254C30.4662 22.8944 29.7684 23.3024 29.1528 23.6626C28.8288 23.852 28.4615 24.0668 28.3411 24.2468C28.2176 24.4312 28.1584 24.8562 28.1061 25.2311C28.0081 25.9339 27.8971 26.7304 27.3134 27.3141C26.7296 27.8977 25.9332 28.0087 25.2305 28.1066C24.8555 28.1589 24.4305 28.2181 24.2461 28.3416C24.0661 28.4621 23.8514 28.8292 23.6619 29.1532C23.3018 29.7689 22.8937 30.4666 22.1248 30.7854C21.3681 31.0992 20.5933 30.8976 19.9096 30.7197C19.5398 30.6235 19.1207 30.5142 18.8959 30.5589C18.6916 30.5993 18.3571 30.8527 18.0618 31.0762C17.5183 31.4878 16.8419 32 16 32Z" fill="url(#paint0_linear_9_2193)"/>
<path d="M16 26C10.4859 26 6 21.5141 6 16C6 10.4859 10.4859 6 16 6C21.5141 6 26 10.4859 26 16C26 21.5141 21.5141 26 16 26Z" fill="url(#paint1_linear_9_2193)"/>
<path fill-rule="evenodd" clip-rule="evenodd" d="M13.5155 10.2858C14.7713 10.2858 15.7929 11.3301 15.7929 12.6138C15.7929 13.8975 14.7713 14.9419 13.5155 14.9419C12.2597 14.9419 11.238 13.8975 11.238 12.6138C11.238 11.3301 12.2597 10.2858 13.5155 10.2858ZM12.34 20.6392C12.2187 20.7632 12.0597 20.8252 11.9008 20.8252C11.7419 20.8252 11.5829 20.7632 11.4616 20.6392C11.2191 20.3913 11.2191 19.9893 11.4616 19.7413L19.66 11.3608C19.9025 11.1129 20.2958 11.1129 20.5383 11.3608C20.7809 11.6087 20.7809 12.0108 20.5383 12.2587L12.34 20.6392ZM16.207 19.3863C16.207 20.67 17.2286 21.7143 18.4844 21.7143C19.7402 21.7143 20.7618 20.67 20.7618 19.3863C20.7618 18.1026 19.7402 17.0582 18.4844 17.0582C17.2286 17.0582 16.207 18.1026 16.207 19.3863ZM18.4844 18.3281C17.9136 18.3281 17.4492 18.8028 17.4492 19.3863C17.4492 19.9698 17.9136 20.4445 18.4844 20.4445C19.0552 20.4445 19.5196 19.9698 19.5196 19.3863C19.5196 18.8028 19.0552 18.3281 18.4844 18.3281ZM12.4803 12.6138C12.4803 12.0303 12.9447 11.5556 13.5155 11.5556C14.0863 11.5556 14.5507 12.0303 14.5507 12.6138C14.5507 13.1973 14.0863 13.672 13.5155 13.672C12.9447 13.672 12.4803 13.1973 12.4803 12.6138Z" fill="white"/>
<path d="M12.34 20.6392L12.2327 20.5343L12.2327 20.5343L12.34 20.6392ZM11.4616 20.6392L11.5689 20.5344L11.5688 20.5343L11.4616 20.6392ZM11.4616 19.7413L11.3544 19.6364L11.3544 19.6364L11.4616 19.7413ZM19.66 11.3608L19.7672 11.4657L19.7672 11.4657L19.66 11.3608ZM20.5383 12.2587L20.6456 12.3636L20.6456 12.3636L20.5383 12.2587ZM14.5507 12.6138H14.7007V12.6138L14.5507 12.6138ZM15.9429 12.6138C15.9429 11.2504 14.8572 10.1358 13.5155 10.1358V10.4358C14.6853 10.4358 15.6429 11.4099 15.6429 12.6138H15.9429ZM13.5155 15.0919C14.8572 15.0919 15.9429 13.9772 15.9429 12.6138H15.6429C15.6429 13.8178 14.6853 14.7919 13.5155 14.7919V15.0919ZM11.088 12.6138C11.088 13.9772 12.1738 15.0919 13.5155 15.0919V14.7919C12.3456 14.7919 11.388 13.8178 11.388 12.6138H11.088ZM13.5155 10.1358C12.1738 10.1358 11.088 11.2504 11.088 12.6138H11.388C11.388 11.4099 12.3456 10.4358 13.5155 10.4358V10.1358ZM11.9008 20.9752C12.099 20.9752 12.2969 20.8977 12.4472 20.7441L12.2327 20.5343C12.1405 20.6287 12.0205 20.6752 11.9008 20.6752V20.9752ZM11.3544 20.7441C11.5046 20.8978 11.7027 20.9752 11.9008 20.9752V20.6752C11.7811 20.6752 11.6611 20.6287 11.5689 20.5344L11.3544 20.7441ZM11.3544 19.6364C11.0548 19.9427 11.0548 20.4379 11.3544 20.7441L11.5688 20.5343C11.3833 20.3447 11.3833 20.0358 11.5688 19.8462L11.3544 19.6364ZM19.5527 11.2559L11.3544 19.6364L11.5688 19.8462L19.7672 11.4657L19.5527 11.2559ZM20.6456 11.2559C20.3442 10.9478 19.8541 10.9478 19.5527 11.2559L19.7672 11.4657C19.9509 11.2779 20.2474 11.2779 20.4311 11.4657L20.6456 11.2559ZM20.6456 12.3636C20.9452 12.0574 20.9452 11.5622 20.6456 11.2559L20.4311 11.4657C20.6166 11.6553 20.6166 11.9642 20.4311 12.1538L20.6456 12.3636ZM12.4472 20.7441L20.6456 12.3636L20.4311 12.1538L12.2327 20.5343L12.4472 20.7441ZM18.4844 21.5643C17.3146 21.5643 16.357 20.5902 16.357 19.3863H16.057C16.057 20.7497 17.1427 21.8643 18.4844 21.8643V21.5643ZM20.6118 19.3863C20.6118 20.5902 19.6542 21.5643 18.4844 21.5643V21.8643C19.8261 21.8643 20.9118 20.7497 20.9118 19.3863H20.6118ZM18.4844 17.2082C19.6542 17.2082 20.6118 18.1823 20.6118 19.3863H20.9118C20.9118 18.0229 19.8261 16.9082 18.4844 16.9082V17.2082ZM16.357 19.3863C16.357 18.1823 17.3146 17.2082 18.4844 17.2082V16.9082C17.1427 16.9082 16.057 18.0229 16.057 19.3863H16.357ZM17.5992 19.3863C17.5992 18.8825 17.9995 18.4781 18.4844 18.4781V18.1781C17.8277 18.1781 17.2992 18.7231 17.2992 19.3863H17.5992ZM18.4844 20.2945C17.9995 20.2945 17.5992 19.89 17.5992 19.3863H17.2992C17.2992 20.0495 17.8276 20.5945 18.4844 20.5945V20.2945ZM19.3696 19.3863C19.3696 19.8901 18.9693 20.2945 18.4844 20.2945V20.5945C19.1411 20.5945 19.6696 20.0495 19.6696 19.3863H19.3696ZM18.4844 18.4781C18.9693 18.4781 19.3696 18.8825 19.3696 19.3863H19.6696C19.6696 18.7231 19.1411 18.1781 18.4844 18.1781V18.4781ZM13.5155 11.4056C12.8587 11.4056 12.3303 11.9506 12.3303 12.6138H12.6303C12.6303 12.11 13.0306 11.7056 13.5155 11.7056V11.4056ZM14.7007 12.6138C14.7007 11.9506 14.1722 11.4056 13.5155 11.4056V11.7056C14.0003 11.7056 14.4007 12.11 14.4007 12.6138L14.7007 12.6138ZM13.5155 13.822C14.1722 13.822 14.7007 13.277 14.7007 12.6138H14.4007C14.4007 13.1176 14.0004 13.522 13.5155 13.522V13.822ZM12.3303 12.6138C12.3303 13.277 12.8587 13.822 13.5155 13.822V13.522C13.0306 13.522 12.6303 13.1176 12.6303 12.6138H12.3303Z" fill="white"/>
<defs>
<linearGradient id="paint0_linear_9_2193" x1="-3.5916" y1="2.83948" x2="2.08736" y2="34.8395" gradientUnits="userSpaceOnUse">
<stop stop-color="#6CF4FB"/>
<stop offset="1" stop-color="#0977BE"/>
</linearGradient>
<linearGradient id="paint1_linear_9_2193" x1="0.484562" y1="-0.694209" x2="2.734" y2="25.8378" gradientUnits="userSpaceOnUse">
<stop stop-color="#A6E8FB"/>
<stop offset="1" stop-color="#0977BE"/>
</linearGradient>
</defs>
</svg>
