<svg width="140" height="25" viewBox="0 0 140 25" fill="none" xmlns="http://www.w3.org/2000/svg">
<path fill-rule="evenodd" clip-rule="evenodd" d="M38.2223 20.2942H44.006L45.2937 24.7903H48.1855L43.5091 9.63389C43.3733 9.12634 43.0343 8.87256 42.4921 8.87256H39.7361C39.194 8.87256 38.855 9.12634 38.7192 9.63389L34.0427 24.7903H36.9346L38.2223 20.2942ZM41.7692 12.4263L43.3277 17.9172H38.9014L40.4591 12.4263L40.8201 11.0643H41.4305C41.4454 11.1416 41.5583 11.5956 41.7692 12.4263Z" fill="white"/>
<path fill-rule="evenodd" clip-rule="evenodd" d="M58.1255 24.7902H61.13L59.7296 19.8068C59.5789 19.1143 59.3076 18.576 58.9156 18.1919C58.5683 17.8323 58.1312 17.5766 57.6518 17.4526V17.3367C58.6909 17.2014 59.4362 16.8066 59.8878 16.1524C60.3394 15.4982 60.5652 14.5559 60.5652 13.3253C60.5652 11.5568 60.1547 10.3378 59.3338 9.66842C58.5128 8.99901 57.116 8.66431 55.1434 8.66431C52.7038 8.66431 50.8134 8.73367 49.4724 8.8724V24.7902H52.2748V18.3984L55.0764 18.4212C55.995 18.4212 56.5974 18.8983 56.8833 19.8525L58.1255 24.7902ZM55.0755 16.0484H52.274V11.0414H55.0764C56.0878 11.0414 56.7779 11.2105 57.1467 11.5489C57.5155 11.8873 57.6999 12.5409 57.6999 13.5098C57.7021 14.4786 57.5174 15.1401 57.1459 15.4943C56.7743 15.8485 56.0842 16.0331 55.0755 16.0484Z" fill="white"/>
<path d="M67.3202 17.6177H65.784C65.8918 18.1334 65.9448 18.6595 65.9422 19.1869V24.7903H63.1183V8.87254H65.9422V13.5564C65.9471 14.1749 65.8941 14.7924 65.784 15.4005H67.3202L71.5901 8.87085H74.6624L70.4605 15.2855C70.1741 15.7357 69.8238 16.1399 69.4212 16.485V16.5544C69.8944 16.9407 70.306 17.3999 70.641 17.9155L74.9564 24.7903H71.7929L67.3202 17.6177Z" fill="white"/>
<path fill-rule="evenodd" clip-rule="evenodd" d="M78.9323 20.2942H84.7159L86.0037 24.7903H88.8955L84.2232 9.63047C84.0879 9.12292 83.7489 8.86914 83.2062 8.86914H80.4461C79.9039 8.86914 79.5649 9.12292 79.4291 9.63047L74.7527 24.7903H77.6445L78.9323 20.2942ZM82.4791 12.4262L84.0377 17.9171H79.6097L81.169 12.4262L81.5301 11.0643H82.1404C82.1548 11.1416 82.2677 11.5956 82.4791 12.4262Z" fill="white"/>
<path fill-rule="evenodd" clip-rule="evenodd" d="M90.1824 8.8724V24.7902C92.2455 24.9306 94.1886 25.0005 96.0116 24.9999C98.3789 24.9999 100.032 24.4078 100.97 23.2235C101.909 22.0392 102.378 19.9086 102.378 16.8317C102.382 13.7554 101.912 11.625 100.97 10.4407C100.029 9.25645 98.3756 8.66431 96.0116 8.66431C94.1891 8.66431 92.2461 8.73367 90.1824 8.8724ZM93.0063 22.5324V11.0862C93.295 11.0873 93.7671 11.0839 94.4224 11.076C95.0777 11.0681 95.6088 11.0642 96.0157 11.0642C97.2927 11.0642 98.176 11.4795 98.6657 12.3102C99.1554 13.1409 99.4003 14.6484 99.4003 16.8325C99.4003 19.0173 99.1593 20.5211 98.6773 21.3439C98.1954 22.1667 97.3068 22.5781 96.0116 22.5781C95.1834 22.5781 94.1817 22.5628 93.0063 22.5324Z" fill="white"/>
<path d="M114.717 22.463L114.852 24.6548C113.482 24.7783 111.192 24.8398 107.985 24.8392C106.96 24.8392 106.15 24.5702 105.556 24.0322C104.961 23.4942 104.658 22.7557 104.645 21.8168V11.8476C104.659 10.9091 104.963 10.1706 105.556 9.63208C106.149 9.0935 106.958 8.82422 107.985 8.82422C111.193 8.82422 113.482 8.88597 114.852 9.00948L114.717 11.2241H108.617C108.211 11.2241 107.92 11.3248 107.748 11.5244C107.576 11.724 107.488 12.07 107.488 12.5624V15.3539H113.881V17.5685H107.488V21.1214C107.488 21.6137 107.575 21.9597 107.748 22.1594C107.92 22.3598 108.211 22.4597 108.617 22.4597L114.717 22.463Z" fill="white"/>
<path d="M129.424 8.87256H132.338C133.046 8.87256 133.415 9.24928 133.446 10.0027L134.078 24.7903H131.299L130.78 11.1997H130.351L127.662 21.7907C127.496 22.4358 127.105 22.7587 126.487 22.7592H124.319C123.687 22.7598 123.288 22.4381 123.122 21.794L120.389 11.2031H120.005L119.508 24.7937H116.752L117.339 10.0027C117.369 9.24984 117.738 8.87312 118.446 8.87256H121.383C122.001 8.87256 122.385 9.1957 122.535 9.84199L124.749 18.4704C124.779 18.5776 124.937 19.3005 125.224 20.6394H125.563C125.728 19.7478 125.886 19.0172 126.037 18.4476L128.251 9.84114C128.415 9.19542 128.806 8.87256 129.424 8.87256Z" fill="white"/>
<path d="M139.5 24.7903H136.676V8.87256H139.5V24.7903Z" fill="white"/>
<path d="M13.5484 11.5448L11.774 14.6186C11.1451 15.7067 10.5165 16.7949 9.88842 17.883C9.20243 19.0699 8.51643 20.2571 7.83044 21.4444C7.25163 22.4455 6.67283 23.4481 6.09402 24.4522C5.98083 24.6481 5.78018 24.9993 5.45862 24.9993H0.784427C0.541328 24.9993 0.392124 24.7558 0.59535 24.447C0.835876 24.0318 1.07555 23.6161 1.31436 23.2C1.81427 22.3369 2.31462 21.4734 2.8154 20.6094C3.37277 19.6466 3.92821 18.6832 4.48172 17.7191C4.99621 16.8268 5.51221 15.9346 6.02971 15.0423C6.60937 14.0378 7.18861 13.033 7.76741 12.028C8.32478 11.0604 8.88215 10.0926 9.43952 9.12463C9.99346 8.16708 10.5478 7.20952 11.1026 6.25197C11.5149 5.53772 11.9232 4.82021 12.3348 4.10531C12.8905 3.14166 13.4404 2.17475 14.007 1.21828C14.2224 0.854632 14.0211 1.19739 14.6552 0.117533C14.6974 0.0439484 14.7752 -0.000940893 14.8591 1.49666e-05H15.0893C15.1763 0.000401883 15.2566 0.0476186 15.3003 0.124062C15.9112 1.20653 15.8386 1.07335 15.9222 1.21894C16.501 2.22306 17.0798 3.22697 17.6586 4.23066C18.0042 4.8287 18.3497 5.42673 18.6953 6.02477C19.395 7.23869 20.0949 8.4526 20.7951 9.66652C21.4086 10.7281 22.0226 11.7895 22.637 12.8506C23.1463 13.732 23.6548 14.6138 24.1624 15.4961C24.7134 16.4497 25.265 17.4033 25.8172 18.357C26.3849 19.3393 26.9519 20.3223 27.5182 21.306C28.0996 22.3128 28.6814 23.3195 29.2637 24.3262C29.4566 24.6207 29.3923 25 29.0109 25H24.2235L24.1727 24.9935C24.1519 24.9865 24.1303 24.9826 24.1084 24.9817C23.0884 24.9817 22.0682 24.9843 21.0478 24.9896C21.017 24.9907 20.9863 24.9937 20.9559 24.9987H20.9321H10.6614C10.4119 24.9987 10.3399 24.746 10.4859 24.4895C10.8949 23.7713 11.3084 23.0531 11.7207 22.335L13.3818 19.4414C13.7896 18.7328 14.1969 18.0238 14.6038 17.3143L14.6726 17.1948C14.7072 17.134 14.7712 17.0966 14.8404 17.0969H15.1331C15.2019 17.0967 15.2656 17.1338 15.3003 17.1942L15.3376 17.2595C15.6385 17.7713 15.9312 18.2884 16.227 18.8042C16.5829 19.4257 16.9385 20.0471 17.2939 20.6682C17.315 20.7117 17.3602 20.7376 17.4078 20.7334C18.7995 20.73 20.191 20.7278 21.5823 20.7269C21.608 20.7269 21.6337 20.7223 21.6742 20.7184L14.9652 9.10896" fill="white"/>
</svg>
